<svg id="Layer_1" data-name="Layer 1" class="spin" xmlns="http://www.w3.org/2000/svg" width="348.95" height="359.67" viewBox="0 0 348.95 359.67">
	<title>logo</title>
	<style>
		.spin {
		 animation: 5s spin infinite linear;
		}
		@keyframes spin {
			from {
				transform: rotate(0deg);
			}
			to {
				transform: rotate(360deg);
			}
		}
	</style>
	<path d="M222.39,160.81a39.47,39.47,0,0,0-44.21,8L139.51,207.5a39.45,39.45,0,0,0,44.21-8Z" transform="translate(-6.47 -4.32)" fill="#f69323"/>
	<path d="M125.35,308.58l12.31,12.31L234,224.6A39.46,39.46,0,0,0,242,180.5l-39.89,39.9a65.5,65.5,0,0,1-83.25,7.74,66.72,66.72,0,0,1-9.34-7.74l-2.5-2.51a65.47,65.47,0,0,1,0-92.59l97.54-97.54L192.45,15.64l17.45-3.56a174.51,174.51,0,0,0-104.48,329.4l8.67,22.22Z" transform="translate(-6.47 -4.32)" fill="#f69323"/>
	<path d="M256.7,26.94,247.87,4.32,236.55,59.74,224.24,47.42,128,143.71a39.44,39.44,0,0,0-8.07,44.1l39.89-39.89a65.52,65.52,0,0,1,92.59,0l2.5,2.5a65.47,65.47,0,0,1,0,92.59l-97.54,97.54,12.13,12.12L152,356.24A174.51,174.51,0,0,0,256.7,26.94Z" transform="translate(-6.47 -4.32)" fill="#231f20"/>
	<polygon points="107.72 359.64 107.73 359.68 107.74 359.64 107.72 359.64" fill="#f69323"/>
</svg>